<?xml version="1.0" standalone="no"?>
<!DOCTYPE svg PUBLIC "-//W3C//DTD SVG 20010904//EN"
 "http://www.w3.org/TR/2001/REC-SVG-20010904/DTD/svg10.dtd">
<svg version="1.0" xmlns="http://www.w3.org/2000/svg"
 width="64.000000pt" height="64.000000pt" viewBox="0 0 64.000000 64.000000"
 preserveAspectRatio="xMidYMid meet">

<g transform="translate(0.000000,64.000000) scale(0.100000,-0.100000)"
fill="#057333" stroke="none">
<path d="M305 602 c-47 -30 -66 -57 -72 -101 -7 -52 1 -83 32 -119 l25 -30
-23 -6 c-12 -3 -65 -6 -118 -6 -104 0 -123 -9 -117 -52 4 -30 22 -30 26 0 3
22 5 22 162 22 l158 0 6 -37 c3 -21 8 -71 12 -111 l6 -73 -163 3 -164 3 -5 33
c-7 43 -26 41 -22 -2 3 -27 -1 -34 -17 -39 -27 -7 -37 -33 -21 -52 19 -22 601
-22 620 0 16 19 6 45 -20 52 -17 4 -20 14 -20 57 0 101 -35 169 -100 196 l-28
12 24 35 c35 52 39 93 16 146 -24 55 -58 79 -120 84 -34 3 -55 -1 -77 -15z
m152 -47 c33 -33 35 -38 31 -87 -4 -42 -11 -57 -37 -80 -57 -51 -152 -32 -185
36 -20 43 -20 59 0 102 21 43 56 63 113 64 36 0 49 -6 78 -35z m31 -447 c-7
-20 -58 -23 -58 -4 0 11 10 16 31 16 20 0 29 -4 27 -12z"/>
<path d="M44 227 c-8 -21 2 -35 16 -21 5 5 6 15 0 24 -8 12 -10 12 -16 -3z"/>
</g>
</svg>
