<?xml version="1.0" standalone="no"?>
<!DOCTYPE svg PUBLIC "-//W3C//DTD SVG 20010904//EN"
 "http://www.w3.org/TR/2001/REC-SVG-20010904/DTD/svg10.dtd">
<svg version="1.0" xmlns="http://www.w3.org/2000/svg"
 width="64.000000pt" height="64.000000pt" viewBox="0 0 64.000000 64.000000"
 preserveAspectRatio="xMidYMid meet">

<g transform="translate(0.000000,64.000000) scale(0.100000,-0.100000)"
fill="#057333" stroke="none">
<path d="M574 626 c-8 -8 -7 -15 0 -22 8 -8 15 -7 22 0 8 8 7 15 0 22 -8 8
-15 7 -22 0z"/>
<path d="M310 614 c-14 -8 -49 -14 -78 -14 -85 0 -115 -23 -126 -93 -1 -10 -8
-23 -14 -29 -21 -21 -14 -34 57 -104 13 -13 22 -26 20 -28 -2 -2 -27 -15 -56
-30 -29 -14 -57 -35 -63 -45 -5 -11 -9 -53 -8 -93 l2 -73 3 65 c5 97 9 108 53
130 22 11 40 17 40 13 0 -4 5 -2 12 5 16 16 28 15 28 -3 0 -7 -8 -19 -17 -24
-10 -6 -13 -11 -7 -11 5 0 15 5 21 11 17 17 23 -18 14 -83 -4 -31 -4 -55 1
-52 4 3 8 20 9 37 1 18 4 43 8 57 7 24 7 24 14 -9 4 -18 7 -44 7 -57 0 -12 4
-25 8 -28 5 -3 5 21 1 52 -9 65 -3 100 14 83 6 -6 16 -11 21 -11 6 0 3 5 -6
11 -19 11 -25 39 -8 39 5 0 13 -7 18 -16 8 -15 10 -15 15 0 4 9 3 16 -1 16 -4
0 -14 4 -22 10 -12 7 -10 13 10 33 42 42 70 74 70 83 0 4 -7 15 -16 25 -12 13
-13 22 -5 38 15 28 14 38 -3 16 -11 -16 -30 -20 -110 -23 -90 -4 -96 -3 -96
15 0 37 37 57 113 64 40 4 80 10 89 14 13 5 17 0 21 -22 4 -27 4 -27 6 4 1 39
-6 44 -39 27z m0 -131 c-1 -24 -2 -26 -11 -10 -5 9 -7 22 -4 27 10 17 15 11
15 -17z m-170 10 c0 -5 -5 -15 -10 -23 -8 -12 -10 -11 -10 8 0 12 5 22 10 22
6 0 10 -3 10 -7z m148 -18 c11 -25 32 -34 32 -15 0 6 5 10 10 10 6 0 10 -7 10
-15 0 -8 -4 -15 -9 -15 -6 0 -18 -13 -27 -29 -10 -16 -28 -34 -41 -40 -52 -24
-109 -7 -137 40 -9 16 -21 29 -27 29 -5 0 -9 7 -9 15 0 8 5 15 10 15 6 0 10
-4 10 -10 0 -19 21 -10 32 15 10 23 17 25 73 25 56 0 63 -2 73 -25z m-40 -137
c-3 -7 -17 -13 -33 -13 -16 0 -30 6 -32 13 -3 8 7 12 32 12 25 0 35 -4 33 -12z
m-18 -48 c0 -5 -7 -10 -15 -10 -8 0 -15 5 -15 10 0 6 7 10 15 10 8 0 15 -4 15
-10z"/>
<path d="M187 408 c2 -5 15 -8 28 -8 13 0 26 3 28 8 3 4 -10 7 -28 7 -18 0
-31 -3 -28 -7z"/>
<path d="M500 550 c0 -19 3 -21 12 -12 9 9 9 15 0 24 -9 9 -12 7 -12 -12z"/>
<path d="M363 393 c9 -2 25 -2 35 0 9 3 1 5 -18 5 -19 0 -27 -2 -17 -5z"/>
<path d="M63 353 c9 -2 23 -2 30 0 6 3 -1 5 -18 5 -16 0 -22 -2 -12 -5z"/>
<path d="M333 353 c-7 -2 -13 -9 -13 -15 0 -7 4 -7 13 0 8 7 67 13 138 15
l124 3 -125 1 c-69 1 -131 -1 -137 -4z"/>
<path d="M605 252 l0 -97 -45 -6 -45 -6 46 -1 c35 -2 48 2 53 14 9 23 7 182
-1 187 -5 3 -8 -38 -8 -91z"/>
<path d="M578 293 c5 -21 7 -23 10 -9 2 10 0 22 -6 28 -6 6 -7 0 -4 -19z"/>
<path d="M444 259 c-10 -17 23 -46 37 -32 7 7 9 19 6 27 -7 18 -33 21 -43 5z
m36 -15 c0 -17 -22 -14 -28 4 -2 7 3 12 12 12 9 0 16 -7 16 -16z"/>
<path d="M432 138 l2 -53 3 48 c4 42 7 47 28 47 21 0 24 -5 28 -47 l3 -48 2
53 2 52 -35 0 -35 0 2 -52z"/>
<path d="M329 147 c5 -5 26 -7 47 -5 l39 3 -47 5 c-26 3 -43 1 -39 -3z"/>
<path d="M164 133 c47 -3 55 -7 60 -26 4 -19 4 -18 3 3 -2 23 -6 25 -60 26
l-57 1 54 -4z"/>
<path d="M277 109 c4 -13 8 -18 11 -10 2 7 -1 18 -6 23 -8 8 -9 4 -5 -13z"/>
<path d="M382 110 c0 -14 2 -19 5 -12 2 6 2 18 0 25 -3 6 -5 1 -5 -13z"/>
<path d="M4 56 c-3 -8 -4 -25 -1 -38 3 -17 5 -15 6 10 l1 32 309 0 310 0 4
-33 5 -32 -2 35 -1 35 -313 3 c-265 2 -313 0 -318 -12z"/>
</g>
</svg>
