<svg height="512pt" viewBox="0 0 512 512" width="512pt" xmlns="http://www.w3.org/2000/svg"><path d="m416 512h-320c-53.023438 0-96-42.976562-96-96v-320c0-53.023438 42.976562-96 96-96h320c53.023438 0 96 42.976562 96 96v320c0 53.023438-42.976562 96-96 96zm0 0" fill="#e3f8fa"/><path d="m277.328125 189.328125c0 29.453125-23.875 53.328125-53.328125 53.328125s-53.328125-23.875-53.328125-53.328125 23.875-53.328125 53.328125-53.328125 53.328125 23.875 53.328125 53.328125zm0 0" fill="#26c6da"/><path d="m269.328125 264h-90.671875c-27.921875 0-50.65625 22.734375-50.65625 50.671875v37.328125c0 4.414062 3.585938 8 8 8h176c4.414062 0 8-3.585938 8-8v-37.328125c0-27.9375-22.734375-50.671875-50.671875-50.671875zm0 0" fill="#26c6da"/><path d="m381.457031 226.128906-37.328125-34.671875c-1.503906-1.410156-3.457031-2.128906-5.441406-2.128906-5.28125 0-8 4.496094-8 7.984375v24h-42.6875c-5.886719 0-10.671875 4.785156-10.671875 10.671875s4.769531 10.671875 10.671875 10.671875h42.671875v24c0 4.433594 3.601563 8 8 8 1.984375 0 3.9375-.734375 5.441406-2.128906l37.328125-34.671875c1.628906-1.503907 2.558594-3.632813 2.558594-5.855469s-.929688-4.351562-2.542969-5.871094zm0 0" fill="#8ce1eb"/></svg>