<?xml version="1.0" standalone="no"?>
<!DOCTYPE svg PUBLIC "-//W3C//DTD SVG 20010904//EN"
 "http://www.w3.org/TR/2001/REC-SVG-20010904/DTD/svg10.dtd">
<svg version="1.0" xmlns="http://www.w3.org/2000/svg"
 width="64.000000pt" height="64.000000pt" viewBox="0 0 64.000000 64.000000"
 preserveAspectRatio="xMidYMid meet">

<g transform="translate(0.000000,64.000000) scale(0.100000,-0.100000)"
fill="#000000" stroke="none">
<path d="M131 621 c-22 -22 -36 -80 -28 -112 3 -12 1 -29 -5 -39 -14 -22 -4
-50 20 -57 15 -4 62 -86 62 -109 0 -5 -34 -22 -75 -37 -97 -36 -107 -54 -103
-175 l3 -87 315 0 315 0 3 43 c2 25 -1 42 -7 42 -6 0 -11 -16 -11 -35 l0 -35
-120 0 -120 0 0 95 0 95 120 0 120 0 0 -39 c0 -22 5 -43 10 -46 6 -4 10 13 10
45 0 43 -3 52 -22 59 -13 5 -34 33 -52 72 -33 67 -63 88 -73 50 -7 -27 -25
-27 -41 0 -9 14 -21 19 -40 17 -25 -3 -27 -7 -30 -50 -2 -27 -5 -48 -6 -48 -2
0 -20 7 -40 15 -39 17 -44 26 -22 45 8 6 20 27 26 46 6 19 18 34 25 34 26 0
38 39 21 64 -8 13 -16 43 -18 66 -2 30 -9 46 -23 54 -11 6 -26 19 -33 29 -14
18 -62 24 -62 7 0 -5 11 -10 24 -10 15 0 27 -7 31 -19 3 -10 15 -21 25 -24 16
-4 20 -14 20 -51 0 -47 -12 -59 -29 -29 -9 17 -10 17 -29 0 -16 -14 -34 -17
-93 -15 l-74 3 -3 43 c-4 60 18 92 63 92 19 0 35 5 35 10 0 18 -69 11 -89 -9z
m189 -156 c18 -21 6 -93 -19 -118 -13 -14 -34 -21 -57 -21 -49 0 -84 39 -84
95 l0 39 59 0 c33 0 63 5 66 10 9 14 21 12 35 -5z m52 -27 c-6 -6 -15 -9 -18
-5 -4 3 -4 14 0 23 5 13 9 15 18 6 9 -9 9 -15 0 -24z m-232 6 c0 -17 -22 -14
-28 4 -2 7 3 12 12 12 9 0 16 -7 16 -16z m300 -154 c0 -53 -2 -60 -20 -60 -18
0 -20 7 -20 60 0 53 2 60 20 60 18 0 20 -7 20 -60z m110 0 c21 -41 26 -60 17
-60 -14 0 -57 80 -57 105 0 26 9 16 40 -45z m-260 8 c0 -6 -10 -18 -22 -28
-20 -16 -25 -16 -45 -3 -38 25 -29 41 22 41 25 -1 45 -5 45 -10z m208 -25 c-2
-27 -8 -39 -20 -41 -15 -3 -18 4 -18 37 0 35 3 41 21 41 17 0 20 -5 17 -37z
m-283 -42 c-7 -6 -19 -3 -35 9 -21 17 -23 21 -10 30 19 12 60 -24 45 -39z
m115 32 c0 -7 -44 -42 -52 -43 -13 0 -9 23 8 41 14 15 44 17 44 2z m-157 -38
c40 -38 44 -60 31 -159 l-7 -46 -48 0 -49 0 0 74 c0 41 -4 78 -10 81 -6 4 -10
-23 -10 -74 l0 -81 -30 0 -30 0 0 81 c0 44 5 89 11 100 8 16 77 56 99 58 3 0
22 -15 43 -34z m207 15 c0 -5 -4 -12 -10 -15 -6 -3 -10 -50 -10 -106 l0 -99
-34 0 c-30 0 -34 4 -40 31 -3 17 -6 56 -6 85 0 49 3 57 37 88 33 30 63 38 63
16z m150 -1 c0 -6 -4 -7 -10 -4 -5 3 -10 11 -10 16 0 6 5 7 10 4 6 -3 10 -11
10 -16z m-270 -30 c0 -5 -7 -9 -15 -9 -15 0 -20 12 -9 23 8 8 24 -1 24 -14z
m0 -63 c0 -18 3 -54 6 -80 7 -45 6 -46 -21 -46 -28 0 -28 0 -21 53 3 28 6 64
6 80 0 17 5 27 15 27 10 0 15 -10 15 -34z" fill="#057333"/>
<path d="M432 578 c-17 -17 -15 -28 9 -54 l21 -22 -23 -31 c-18 -25 -20 -33
-9 -46 17 -20 33 -19 55 5 l18 20 22 -20 c26 -24 38 -25 55 -5 11 13 9 21 -9
46 l-23 31 22 23 c40 43 -2 86 -44 46 l-23 -21 -18 20 c-21 23 -36 25 -53 8z
m75 -48 c5 0 18 9 28 20 26 29 39 13 15 -20 -25 -35 -25 -42 0 -65 15 -14 17
-21 9 -29 -8 -8 -15 -5 -26 12 -9 12 -21 22 -28 22 -7 0 -19 -10 -28 -22 -11
-17 -18 -20 -26 -12 -8 8 -6 15 9 29 25 23 25 30 0 65 -24 34 -14 47 15 20 12
-11 26 -20 32 -20z" fill="#057333"/>
</g>
</svg>
