<?xml version="1.0" standalone="no"?>
<!DOCTYPE svg PUBLIC "-//W3C//DTD SVG 20010904//EN"
 "http://www.w3.org/TR/2001/REC-SVG-20010904/DTD/svg10.dtd">
<svg version="1.0" xmlns="http://www.w3.org/2000/svg"
 width="64.000000pt" height="64.000000pt" viewBox="0 0 64.000000 64.000000"
 preserveAspectRatio="xMidYMid meet">

<g transform="translate(0.000000,64.000000) scale(0.100000,-0.100000)"
fill="#000000" stroke="none">
<path d="M254 626 c-75 -33 -114 -137 -79 -210 53 -112 198 -127 273 -28 22
29 27 46 27 92 0 47 -5 63 -29 94 -46 62 -123 82 -192 52z" fill="#057333"/>
<path d="M145 308 c-36 -31 -77 -100 -89 -150 -5 -22 1 -32 39 -66 83 -73 183
-103 280 -84 73 15 115 35 170 84 38 34 44 44 39 66 -16 65 -72 149 -116 173
-13 7 -26 4 -46 -11 -59 -44 -145 -44 -203 -1 -16 12 -30 21 -33 21 -3 0 -21
-14 -41 -32z m359 -123 c32 -32 9 -45 -80 -45 -69 0 -86 3 -91 16 -10 28 25
44 93 44 43 0 67 -5 78 -15z" fill="#057333"/>
</g>
</svg>
