<?xml version="1.0" standalone="no"?>
<!DOCTYPE svg PUBLIC "-//W3C//DTD SVG 20010904//EN"
 "http://www.w3.org/TR/2001/REC-SVG-20010904/DTD/svg10.dtd">
<svg version="1.0" xmlns="http://www.w3.org/2000/svg"
 width="64.000000pt" height="64.000000pt" viewBox="0 0 64.000000 64.000000"
 preserveAspectRatio="xMidYMid meet">

<g transform="translate(0.000000,64.000000) scale(0.100000,-0.100000)"
fill="#057333" stroke="none">
<path d="M5 587 c-3 -7 -4 -131 -3 -277 l3 -265 310 0 310 0 3 33 c2 18 -1 32
-7 32 -6 0 -11 -11 -11 -25 l0 -25 -180 0 -180 0 0 90 0 90 180 0 180 0 0 -50
c0 -27 5 -50 10 -50 6 0 10 20 10 44 0 24 3 58 6 75 5 26 3 32 -16 39 -20 7
-21 10 -7 15 42 16 -6 67 -63 67 -28 0 -30 -2 -30 -40 0 -76 -19 -39 -22 43
l-3 82 -122 3 c-115 2 -123 4 -123 22 0 11 -4 20 -10 20 -6 0 -10 -28 -10 -65
l0 -65 -105 0 -105 0 0 100 0 100 105 0 c98 0 105 -1 105 -20 0 -11 5 -20 10
-20 11 0 13 20 4 44 -5 13 -25 16 -120 16 -83 0 -116 -3 -119 -13z m475 -207
l0 -70 -115 0 -115 0 0 70 0 70 115 0 115 0 0 -70z m-250 -170 l0 -150 -105 0
-105 0 0 150 0 150 105 0 105 0 0 -150z m348 123 c-2 -17 -10 -29 -20 -31 -14
-3 -18 3 -18 27 0 25 4 31 21 31 16 0 20 -5 17 -27z m42 -63 c0 -6 -68 -10
-185 -10 -117 0 -185 4 -185 10 0 6 68 10 185 10 117 0 185 -4 185 -10z"/>
<path d="M270 375 l0 -55 75 0 75 0 0 55 0 55 -75 0 -75 0 0 -55z m130 0 l0
-35 -55 0 -55 0 0 35 0 35 55 0 55 0 0 -35z"/>
<path d="M440 410 c0 -5 5 -10 10 -10 6 0 10 5 10 10 0 6 -4 10 -10 10 -5 0
-10 -4 -10 -10z"/>
<path d="M446 381 c-4 -7 -5 -15 -2 -18 9 -9 19 4 14 18 -4 11 -6 11 -12 0z"/>
<path d="M40 315 c0 -15 4 -24 10 -20 13 8 13 32 0 40 -6 4 -10 -5 -10 -20z"/>
<path d="M40 435 c0 -15 4 -24 10 -20 13 8 13 32 0 40 -6 4 -10 -5 -10 -20z"/>
</g>
</svg>
