<?xml version="1.0"?>
<svg xmlns="http://www.w3.org/2000/svg" xmlns:xlink="http://www.w3.org/1999/xlink" xmlns:svgjs="http://svgjs.com/svgjs" version="1.1" width="512" height="512" x="0" y="0" viewBox="0 0 64 64" style="enable-background:new 0 0 512 512" xml:space="preserve" class=""><g><path xmlns="http://www.w3.org/2000/svg" d="m38 39h2v4h5.277l-5.477-9.585c-.448.338-.882.697-1.286 1.1-2.266 2.266-3.514 5.28-3.514 8.485h3z" fill="#057333" data-original="#000000" style="" class=""/><path xmlns="http://www.w3.org/2000/svg" d="m21.721 29 .915 2.743c.755.244 1.482.544 2.174.896l.19-.096v-7.543h2v6.543l.39-.195 2.61 2.61v-4.958c0-3.915-1.893-7.388-4.803-9.58l-5.474 9.58z" fill="#057333" data-original="#000000" style="" class=""/><path xmlns="http://www.w3.org/2000/svg" d="m18 17c-.123 0-.242.015-.364.018l-1.395 7.887 1.759 3.08 1.759-3.079-1.395-7.887c-.122-.004-.241-.019-.364-.019z" fill="#057333" data-original="#000000" style="" class=""/><circle xmlns="http://www.w3.org/2000/svg" cx="18" cy="9" r="6" fill="#057333" data-original="#000000" style="" class=""/><path xmlns="http://www.w3.org/2000/svg" d="m20.436 17.25.874 4.942 2.195-3.842c-.956-.497-1.984-.876-3.069-1.1z" fill="#057333" data-original="#000000" style="" class=""/><path xmlns="http://www.w3.org/2000/svg" d="m48.794 38.844-1.794-2.243-1.794 2.243 1.794 3.141z" fill="#057333" data-original="#000000" style="" class=""/><path xmlns="http://www.w3.org/2000/svg" d="m14.69 22.191.874-4.942c-1.085.225-2.112.603-3.069 1.1z" fill="#057333" data-original="#000000" style="" class=""/><path xmlns="http://www.w3.org/2000/svg" d="m44.644 31.23 2.356 2.356 2.351-2.351c-.76-.152-1.546-.235-2.351-.235-.8 0-1.588.078-2.356.23z" fill="#057333" data-original="#000000" style="" class=""/><path xmlns="http://www.w3.org/2000/svg" d="m41.489 32.341 2.649 4.636 1.522-1.902-3.19-3.19c-.334.135-.66.289-.981.456z" fill="#057333" data-original="#000000" style="" class=""/><path xmlns="http://www.w3.org/2000/svg" d="m52.506 32.349c-.32-.166-.647-.32-.983-.458l-3.183 3.183 1.522 1.902z" fill="#057333" data-original="#000000" style="" class=""/><circle xmlns="http://www.w3.org/2000/svg" cx="47" cy="23" r="6" fill="#057333" data-original="#000000" style="" class=""/><path xmlns="http://www.w3.org/2000/svg" d="m54 43v-4h2v4h3c0-3.915-1.893-7.388-4.803-9.58l-5.474 9.58z" fill="#057333" data-original="#000000" style="" class=""/><path xmlns="http://www.w3.org/2000/svg" d="m24.77 57.105 2.226 1.112 3.223-3.223-1.112-2.226.257-.461c.471-.847.851-1.767 1.127-2.733l.145-.508 2.364-.787v-4.279-.279l-2.365-.788-.145-.508c-.276-.967-.656-1.887-1.127-2.733l-.257-.461 1.112-2.226-3.223-3.224-2.225 1.113-.461-.257c-.846-.472-1.766-.851-2.734-1.127l-.507-.146-.789-2.364h-4.559l-.789 2.365-.507.146c-.968.276-1.888.655-2.734 1.127l-.461.257-2.225-1.113-3.223 3.224 1.112 2.226-.257.461c-.471.847-.851 1.767-1.127 2.733l-.145.508-2.364.787v4.559l2.365.788.145.508c.276.967.656 1.887 1.127 2.733l.257.461-1.112 2.226 3.223 3.223 2.226-1.112.461.257c.846.472 1.766.851 2.734 1.127l.507.146.788 2.363h2.279 2.279l.789-2.365.507-.146c.968-.276 1.888-.655 2.734-1.127zm-6.77-.105c-6.065 0-11-4.935-11-11s4.935-11 11-11 11 4.935 11 11-4.935 11-11 11z" fill="#057333" data-original="#000000" style="" class=""/><path xmlns="http://www.w3.org/2000/svg" d="m18 37c-4.962 0-9 4.037-9 9s4.038 9 9 9 9-4.037 9-9-4.038-9-9-9zm-5 10h-2v-2h2zm5-2c1.654 0 3 1.346 3 3v3h-2v2h-2v-2.184c-1.161-.414-2-1.514-2-2.816h2c0 .552.449 1 1 1h1v-1c0-.552-.449-1-1-1-1.654 0-3-1.346-3-3v-3h2v-2h2v2.184c1.161.414 2 1.514 2 2.816h-2c0-.552-.449-1-1-1h-1v1c0 .552.449 1 1 1zm5 2v-2h2v2z" fill="#057333" data-original="#000000" style="" class=""/><path xmlns="http://www.w3.org/2000/svg" d="m35 49.721-2.743.914c-.244.755-.544 1.482-.896 2.174l1.291 2.581-5.262 5.262-2.581-1.29c-.691.352-1.419.651-2.174.896l-.247.742h36.612v-12h-24zm20 7.279h2v2h-2zm-4 0h2v2h-2zm-4 0h2v2h-2z" fill="#057333" data-original="#000000" style="" class=""/><path xmlns="http://www.w3.org/2000/svg" d="m9 31.543v-6.543h2v7.543l.191.096c.691-.352 1.419-.651 2.174-.896l.914-2.743h1.998l-5.474-9.58c-2.91 2.192-4.803 5.665-4.803 9.58v4.958l2.61-2.611z" fill="#057333" data-original="#000000" style="" class=""/><path xmlns="http://www.w3.org/2000/svg" d="m35 45h26v2h-26z" fill="#057333" data-original="#000000" style="" class=""/></g></svg>
