<svg id="Solid" height="512" viewBox="0 0 512 512" width="512" xmlns="http://www.w3.org/2000/svg"><path d="m168 112c-42.431 0-72 16.864-72 32s29.569 32 72 32 72-16.864 72-32-29.569-32-72-32zm40 40h-80a8 8 0 0 1 0-16h80a8 8 0 0 1 0 16z"/><path d="m256 232h112v16h-112z"/><path d="m327.559 306.6a8 8 0 0 1 -15.559-2.6 47.938 47.938 0 0 0 -37.978 18.7 7.99 7.99 0 1 1 -.771 1.02 47.921 47.921 0 0 0 14.919 69.92 8 8 0 1 1 12.346 4.961 47.982 47.982 0 0 0 59.484-46.601 8 8 0 1 1 -8-8 8 8 0 0 1 8 8 48.073 48.073 0 0 0 -32.441-45.4zm-39.559 61.4a8 8 0 1 1 8-8 8 8 0 0 1 -8 8zm24-32a8 8 0 1 1 8 8 8 8 0 0 1 -8-8zm16 48a8 8 0 1 1 8-8 8 8 0 0 1 -8 8z"/><path d="m291.056 48 8-16h-262.112l8 16z"/><path d="m107.854 179.439c-17.962-8.98-27.854-21.566-27.854-35.439s9.892-26.459 27.854-35.439c16.199-8.101 37.559-12.561 60.146-12.561s43.947 4.46 60.146 12.561c17.962 8.98 27.854 21.566 27.854 35.439 0 12.182-7.63 23.372-21.654 32h65.785c-3.73-47.545-9.147-94.631-11.22-112h-241.821c-3.298 27.677-15.09 130.9-15.09 192s11.792 164.325 15.09 192h144.91v-97.25a73.17 73.17 0 0 1 -13.454 1.25 72.045 72.045 0 0 1 -27.587-5.471 54.5 54.5 0 0 1 -20.719 3.971q-2.328 0-4.7-.181c-15.792-1.215-31.058-8.452-42.984-20.379s-19.163-27.19-20.378-42.983c-1.25-16.256 3.978-31.125 14.721-41.869 10.858-10.857 24.124-13.83 38.359-8.6 9.542 3.512 19.767 10.677 31.952 22.412 8.352-1.966 18.493-2.9 31.336-2.9 4.885 0 9.336.139 13.454.41v-66.153a163.988 163.988 0 0 1 -24 1.743c-22.587 0-43.947-4.46-60.146-12.561zm-3.854 220.561h40a8 8 0 0 1 0 16h-40a8 8 0 0 1 0-16zm-32 0a8 8 0 1 1 -8 8 8 8 0 0 1 8-8z"/><path d="m36.944 480h155.056v-16h-147.056z"/><path d="m160.647 272.859c13.5 15.6 28.575 40.191 7.341 62.139a56.662 56.662 0 0 0 24.012-.606v-61.949c-4.039-.3-8.492-.443-13.454-.443a164.5 164.5 0 0 0 -17.899.859z"/><path d="m109.738 251.509a22.713 22.713 0 0 0 -7.842-1.545c-4.954 0-9.354 2.11-13.682 6.438-7.389 7.388-10.97 17.8-10.083 29.327.922 11.987 6.512 23.671 15.739 32.9s20.911 14.818 32.9 15.74c11.525.888 21.939-2.695 29.327-10.083 8.814-8.814 12.859-21.082-16.971-50.911-11.934-11.936-21.272-18.883-29.388-21.866z"/><path d="m208 480h208v-288h-208zm136-24h-64a8 8 0 0 1 0-16h64a8 8 0 0 1 0 16zm-32-40a64 64 0 1 1 64-64 64.072 64.072 0 0 1 -64 64zm-72-192a8 8 0 0 1 8-8h128a8 8 0 0 1 8 8v32a8 8 0 0 1 -8 8h-128a8 8 0 0 1 -8-8z"/><path d="m432 192h48v288h-48z"/></svg>