<?xml version="1.0"?>
<svg xmlns="http://www.w3.org/2000/svg" xmlns:xlink="http://www.w3.org/1999/xlink" xmlns:svgjs="http://svgjs.com/svgjs" version="1.1" width="512" height="512" x="0" y="0" viewBox="0 0 448 448" style="enable-background:new 0 0 512 512" xml:space="preserve" class=""><g><path xmlns="http://www.w3.org/2000/svg" d="m64 416h64v-368h-24v352h-16v-352h-24zm0 0" fill="#057333" data-original="#000000" style="" class=""/><path xmlns="http://www.w3.org/2000/svg" d="m8 448h432c4.417969 0 8-3.582031 8-8v-256h-56c-13.253906 0-24-10.746094-24-24v-32h16v32c0 4.417969 3.582031 8 8 8h44.671875l-53.769531-53.695312c-1.53125-1.472657-3.574219-2.296876-5.703125-2.304688h-81.199219v312c0 4.417969-3.582031 8-8 8h-104c-4.417969 0-8-3.582031-8-8v-312h-32v312c0 4.417969-3.582031 8-8 8h-80c-4.417969 0-8-3.582031-8-8v-312h-40c-4.417969 0-8 3.582031-8 8v320c0 4.417969 3.582031 8 8 8zm0 0" fill="#057333" data-original="#000000" style="" class=""/><path xmlns="http://www.w3.org/2000/svg" d="m96 4.503906-22.921875 27.496094h45.84375zm0 0" fill="#057333" data-original="#000000" style="" class=""/><path xmlns="http://www.w3.org/2000/svg" d="m192 384v32h88v-416h-88v32h16v16h-16v32h16v16h-16v32h16v16h-16v32h16v16h-16v32h16v16h-16v32h16v16h-16v32h16v16h-16v32h16v16zm0 0" fill="#057333" data-original="#000000" style="" class=""/></g></svg>
