<?xml version="1.0" standalone="no"?>
<!DOCTYPE svg PUBLIC "-//W3C//DTD SVG 20010904//EN"
 "http://www.w3.org/TR/2001/REC-SVG-20010904/DTD/svg10.dtd">
<svg version="1.0" xmlns="http://www.w3.org/2000/svg"
 width="64.000000pt" height="64.000000pt" viewBox="0 0 64.000000 64.000000"
 preserveAspectRatio="xMidYMid meet">

<g transform="translate(0.000000,64.000000) scale(0.100000,-0.100000)"
fill="#000000" stroke="none">
<path d="M320 584 c0 -47 2 -54 20 -54 18 0 20 -7 20 -85 l0 -85 85 0 85 0 0
-40 0 -40 -85 0 -85 0 0 -85 c0 -78 -2 -85 -20 -85 -18 0 -20 -7 -20 -54 l0
-53 49 8 c153 24 263 153 263 309 0 156 -110 285 -263 309 l-49 8 0 -53z"/>
</g>
</svg>
