<?xml version="1.0" encoding="iso-8859-1"?>
<!-- Generator: Adobe Illustrator 19.0.0, SVG Export Plug-In . SVG Version: 6.00 Build 0)  -->
<svg version="1.1" id="Layer_1" xmlns="http://www.w3.org/2000/svg" xmlns:xlink="http://www.w3.org/1999/xlink" x="0px" y="0px"
	 viewBox="0 0 496 496" style="enable-background:new 0 0 496 496;" xml:space="preserve">
<g>
	<g>
		<g>
			<path d="M264,136h-16V96h16V64v-8V43.288L186.072,0h-20.144L88,43.288V56v8v32h16v40H88v48h176V136z M170.072,16h11.856
				l57.592,32H112.48L170.072,16z M104,64h144v16H104V64z M232,96v40h-16V96H232z M200,96v40h-16V96H200z M168,96v40h-16V96H168z
				 M136,96v40h-16V96H136z M248,168H104v-16h144V168z" fill="#057333"/>
			<polygon points="336,224 352,224 352,64 280,64 280,80 336,80 			" fill="#057333"/>
			<path d="M336,480H80v-64H16V80h56V64H0v363.312L68.688,496H352v-64h-16V480z M64,468.688L27.312,432H64V468.688z" fill="#057333"/>
			<path d="M288,224c-57.344,0-104,46.656-104,104s46.656,104,104,104s104-46.656,104-104S345.344,224,288,224z M288,416
				c-48.52,0-88-39.48-88-88c0-48.52,39.48-88,88-88s88,39.48,88,88C376,376.52,336.52,416,288,416z" fill="#057333"/>
			<path d="M272,288h32c8.816,0,16,7.176,16,16h16c0-17.648-14.352-32-32-32h-8v-16h-16v16h-8c-17.648,0-32,14.352-32,32
				s14.352,32,32,32h32c8.816,0,16,7.176,16,16c0,8.824-7.184,16-16,16h-32c-8.824,0-16-7.176-16-16h-16c0,17.648,14.352,32,32,32h8
				v16h16v-16h8c17.648,0,32-14.352,32-32s-14.352-32-32-32h-32c-8.824,0-16-7.176-16-16C256,295.176,263.176,288,272,288z" fill="#057333"/>
			<polygon points="470.168,264 453.032,288 400,288 400,304 441.6,304 433.488,315.352 446.504,324.648 489.824,264 
				446.504,203.352 433.488,212.648 441.6,224 368,224 368,240 453.032,240 			" fill="#057333"/>
			<polygon points="496,368 496,352 430.4,352 438.504,340.648 425.488,331.352 382.168,392 425.488,452.648 438.504,443.352 
				430.4,432 496,432 496,416 418.968,416 401.824,392 418.968,368 			" fill="#057333"/>
			<polygon points="176,368 176,352 134.4,352 142.504,340.648 129.488,331.352 86.168,392 129.488,452.648 142.504,443.352 
				134.4,432 216,432 216,416 122.968,416 105.824,392 122.968,368 			" fill="#057333"/>
			<polygon points="137.488,315.352 150.504,324.648 193.824,264 150.504,203.352 137.488,212.648 145.6,224 80,224 80,240 
				157.032,240 174.168,264 157.032,288 80,288 80,304 145.6,304 			" fill="#057333"/>
		</g>
	</g>
</g>
</svg>
