<?xml version="1.0" standalone="no"?>
<!DOCTYPE svg PUBLIC "-//W3C//DTD SVG 20010904//EN"
 "http://www.w3.org/TR/2001/REC-SVG-20010904/DTD/svg10.dtd">
<svg version="1.0" xmlns="http://www.w3.org/2000/svg"
 width="64.000000pt" height="64.000000pt" viewBox="0 0 64.000000 64.000000"
 preserveAspectRatio="xMidYMid meet">

<g transform="translate(0.000000,64.000000) scale(0.100000,-0.100000)"
fill="#000000" stroke="none">
<path d="M188 619 c-47 -24 -52 -45 -43 -154 5 -65 12 -93 31 -120 13 -20 24
-39 24 -44 0 -14 -44 -47 -87 -66 -35 -14 -45 -25 -53 -54 -13 -46 -13 -98 0
-106 6 -4 10 11 10 37 0 70 9 89 54 109 l41 19 26 -30 c14 -17 33 -30 42 -30
14 0 17 -10 17 -57 0 -67 19 -56 21 12 l2 40 6 -47 c10 -68 21 -71 21 -5 0 48
3 57 18 57 19 0 62 50 62 71 0 7 -8 21 -17 31 -12 13 -14 23 -8 32 44 59 45
64 52 185 5 100 4 125 -8 132 -8 5 -50 9 -94 8 -60 0 -89 -5 -117 -20z m208
-23 c8 -32 -14 -212 -28 -236 -33 -52 -125 -62 -165 -17 -31 34 -33 40 -44
126 -15 124 9 148 148 150 79 1 83 0 89 -23z m-56 -308 c0 -3 -15 -15 -32 -27
-32 -20 -33 -20 -63 -1 -16 10 -31 23 -32 27 -2 4 26 8 62 8 36 0 65 -3 65 -7z
m-102 -46 c22 -17 22 -19 7 -32 -15 -13 -20 -12 -36 9 -34 42 -15 57 29 23z
m122 9 c0 -5 -8 -19 -19 -32 -16 -21 -21 -22 -36 -9 -15 13 -15 15 7 32 25 19
48 23 48 9z m-75 -51 c3 -5 -1 -10 -10 -10 -9 0 -13 5 -10 10 3 6 8 10 10 10
2 0 7 -4 10 -10z" fill="#057333"/>
<path d="M187 533 c-4 -3 -7 -18 -6 -32 0 -26 0 -26 9 -3 8 19 17 22 60 22 28
0 66 -7 85 -14 20 -9 35 -11 35 -5 0 27 -161 55 -183 32z" fill="#057333"/>
<path d="M440 233 c-63 -20 -90 -56 -90 -121 0 -28 7 -47 25 -66 51 -56 122
-58 175 -5 58 58 34 159 -45 189 -28 11 -41 11 -65 3z m87 -35 c9 -7 22 -28
30 -45 11 -28 11 -38 -1 -67 -29 -70 -105 -88 -157 -37 -48 49 -35 136 25 162
26 11 83 4 103 -13z" fill="#057333"/>
<path d="M461 153 c-1 -16 -7 -23 -20 -23 -11 0 -23 -4 -26 -10 -4 -6 5 -10
19 -10 20 0 26 -5 27 -22 l2 -23 4 23 c3 15 11 22 29 22 13 0 24 5 24 10 0 6
-11 10 -24 10 -18 0 -26 7 -29 23 l-4 22 -2 -22z" fill="#057333"/>
<path d="M126 124 c9 -64 14 -68 14 -11 0 25 -5 49 -11 52 -7 5 -8 -8 -3 -41z" fill="#057333"/>
</g>
</svg>
