<?xml version="1.0" standalone="no"?>
<!DOCTYPE svg PUBLIC "-//W3C//DTD SVG 20010904//EN"
 "http://www.w3.org/TR/2001/REC-SVG-20010904/DTD/svg10.dtd">
<svg version="1.0" xmlns="http://www.w3.org/2000/svg"
 width="512.000000pt" height="512.000000pt" viewBox="0 0 512.000000 512.000000"
 preserveAspectRatio="xMidYMid meet">

<g transform="translate(0.000000,512.000000) scale(0.100000,-0.100000)"
fill="#000000" stroke="none">
<path d="M665 5101 c-53 -24 -83 -55 -106 -105 -17 -37 -19 -69 -19 -313 0
-365 4 -383 136 -568 93 -130 162 -271 201 -410 l28 -100 3 -1365 c3 -1525 7
-1438 -68 -1583 -41 -81 -112 -181 -204 -287 -93 -108 -113 -169 -81 -248 21
-49 52 -81 100 -103 38 -18 113 -19 1905 -19 1792 0 1867 1 1905 19 48 22 79
54 100 103 33 81 16 133 -82 247 -148 170 -227 303 -257 431 -23 96 -24 2683
-1 2811 32 181 105 348 227 516 123 168 128 190 128 548 0 252 -2 284 -19 321
-23 50 -53 81 -106 105 -39 18 -108 19 -1895 19 -1787 0 -1856 -1 -1895 -19z
m2423 -2086 c182 -159 331 -293 331 -296 1 -3 -26 -14 -60 -24 -81 -25 -109
-48 -109 -89 0 -31 -3 -33 -67 -54 l-66 -21 -29 24 c-16 14 -38 25 -49 25 -10
0 -119 -34 -241 -75 -121 -41 -223 -73 -225 -71 -7 7 169 877 177 874 4 -2
156 -133 338 -293z m-976 -872 c70 -236 126 -428 125 -429 -1 0 -193 45 -427
102 -234 57 -431 104 -438 106 -13 3 591 648 606 648 4 0 64 -192 134 -427z
m1201 -493 l416 -365 -37 -13 c-232 -82 -1067 -361 -1070 -357 -3 2 46 261
109 574 l113 569 27 -21 c15 -12 214 -186 442 -387z m-1083 -403 c0 -6 -9 -44
-20 -82 -27 -93 -26 -123 6 -156 25 -26 25 -28 11 -75 -10 -34 -20 -50 -33
-52 -38 -6 -64 -26 -74 -57 -6 -17 -35 -120 -64 -229 -30 -109 -56 -199 -58
-201 -2 -2 -145 140 -317 316 -172 176 -312 321 -310 323 4 3 840 224 852 225
4 1 7 -5 7 -12z m1505 -802 l-7 -295 -301 0 -301 0 -103 61 c-57 34 -105 65
-108 69 -4 7 817 471 824 465 2 -2 0 -137 -4 -300z"/>
<path d="M2834 3012 c-60 -40 -15 -130 54 -108 59 19 40 116 -23 116 -11 0
-25 -4 -31 -8z"/>
<path d="M3050 2810 c-24 -24 -25 -48 -4 -78 19 -27 64 -29 87 -4 53 58 -28
137 -83 82z"/>
<path d="M2761 2743 c-14 -17 -19 -34 -15 -47 18 -61 100 -61 118 0 8 28 -28
74 -59 74 -14 0 -32 -11 -44 -27z"/>
<path d="M1854 2272 c-25 -16 -34 -50 -22 -77 21 -46 91 -45 109 2 15 39 -14
83 -56 83 -11 0 -25 -4 -31 -8z"/>
<path d="M1666 2074 c-35 -35 -8 -104 42 -104 24 0 62 36 62 60 0 50 -69 80
-104 44z"/>
<path d="M1954 1992 c-60 -40 -15 -130 54 -108 59 19 40 116 -23 116 -11 0
-25 -4 -31 -8z"/>
<path d="M2937 1582 c-36 -39 -7 -102 45 -102 25 0 58 36 58 63 0 50 -70 76
-103 39z"/>
<path d="M3218 1466 c-18 -9 -23 -20 -23 -51 0 -34 4 -42 28 -53 24 -12 31
-11 52 2 32 21 40 52 21 80 -18 29 -47 37 -78 22z"/>
<path d="M2942 1328 c-24 -31 -23 -57 2 -83 14 -14 32 -25 41 -25 28 0 67 48
59 73 -11 36 -25 47 -59 47 -18 0 -37 -6 -43 -12z"/>
<path d="M1900 1050 c-24 -24 -25 -48 -4 -78 19 -27 64 -29 87 -4 53 58 -28
137 -83 82z"/>
<path d="M1666 944 c-36 -35 -7 -104 42 -104 27 0 62 33 62 58 0 52 -68 82
-104 46z"/>
<path d="M1887 752 c-10 -10 -17 -28 -17 -40 0 -28 34 -62 60 -62 27 0 60 35
60 63 0 50 -70 76 -103 39z"/>
<path d="M3530 390 c-39 -39 -14 -100 42 -100 53 0 79 74 36 104 -30 21 -54
20 -78 -4z"/>
<path d="M3286 304 c-36 -35 -7 -104 42 -104 27 0 62 33 62 58 0 52 -68 82
-104 46z"/>
</g>
</svg>
