<?xml version="1.0"?>
<svg xmlns="http://www.w3.org/2000/svg" xmlns:xlink="http://www.w3.org/1999/xlink" xmlns:svgjs="http://svgjs.com/svgjs" version="1.1" width="512" height="512" x="0" y="0" viewBox="0 0 512 512" style="enable-background:new 0 0 512 512" xml:space="preserve" class=""><g><g xmlns="http://www.w3.org/2000/svg" id="solid"><circle cx="240" cy="416" r="24" fill="#057333" data-original="#000000" style="" class=""/><path d="M214,272a18.021,18.021,0,0,0,18-18V206.1A93.306,93.306,0,0,1,190.072,216H90a18.021,18.021,0,0,0-18,18v53.38A93.148,93.148,0,0,1,123.45,272Z" fill="#057333" data-original="#000000" style="" class=""/><path d="M264,352V144c0-.654,5.754-24,5.754-24H34.246S40,143.346,40,144c0,0-.08,225.306-.239,225.94L34.246,392H120V344a8,8,0,0,1,10.971-7.428L169.541,352ZM95.848,293.065a77.46,77.46,0,0,0-26.294,16.693A8,8,0,0,1,56,304V234a34.038,34.038,0,0,1,34-34h8.328a72,72,0,0,1,106.11-1.335,77.408,77.408,0,0,0,28.7-11.7l2.426-1.617A8,8,0,0,1,248,192v62a34.038,34.038,0,0,1-34,34h-2.125a72.007,72.007,0,0,1-116.027,5.065Z" fill="#057333" data-original="#000000" style="" class=""/><path d="M113.511,288.65a55.937,55.937,0,0,0,77.658-.65H123.45A78.452,78.452,0,0,0,113.511,288.65Z" fill="#057333" data-original="#000000" style="" class=""/><path d="M272,84.944l-4.422,2.211a8,8,0,0,1-7.156,0L248,80.944l-12.422,6.211a8,8,0,0,1-7.156,0L216,80.944l-12.422,6.211a8,8,0,0,1-7.156,0L184,80.944l-12.422,6.211a8,8,0,0,1-7.156,0L152,80.944l-12.422,6.211a8,8,0,0,1-7.156,0L120,80.944l-12.422,6.211a8,8,0,0,1-7.156,0L88,80.944,75.578,87.155a8,8,0,0,1-7.156,0L56,80.944,43.578,87.155a8,8,0,0,1-7.156,0L32,84.944V104H272Z" fill="#057333" data-original="#000000" style="" class=""/><path d="M152,192a55.805,55.805,0,0,0-28.858,8h57.713A55.887,55.887,0,0,0,152,192Z" fill="#057333" data-original="#000000" style="" class=""/><path d="M32,427.056l4.422-2.211a8,8,0,0,1,7.156,0L56,431.056l12.422-6.211a8,8,0,0,1,7.156,0L88,431.056l12.422-6.211a8,8,0,0,1,7.156,0L120,431.056V408H32Z" fill="#057333" data-original="#000000" style="" class=""/><path d="M324,256c.085,0,.169-.008.254-.009A47.8,47.8,0,0,1,312,224a8,8,0,0,1,8-8h31.114C348,202.214,337.023,192,324,192c-15.439,0-28,14.355-28,32S308.561,256,324,256Z" fill="#057333" data-original="#000000" style="" class=""/><path d="M360,256a32.054,32.054,0,0,0,30.987-24H329.013A32.054,32.054,0,0,0,360,256Z" fill="#057333" data-original="#000000" style="" class=""/><path d="M424,224a80,80,0,0,0-144-47.991V224c0-26.467,19.738-48,44-48,21.763,0,39.875,17.329,43.377,40H400a8,8,0,0,1,8,8,47.994,47.994,0,0,1-66.8,44.164A41.033,41.033,0,0,1,324,272c-24.262,0-44-21.533-44-48v47.991A80,80,0,0,0,424,224Z" fill="#057333" data-original="#000000" style="" class=""/><path d="M459.578,39.155a8,8,0,0,1-7.156,0L440,32.944l-12.422,6.211a8,8,0,0,1-7.156,0L408,32.944l-12.422,6.211a8,8,0,0,1-7.156,0L376,32.944l-12.422,6.211a8,8,0,0,1-7.156,0L344,32.944l-12.422,6.211a8,8,0,0,1-7.156,0L312,32.944l-12.422,6.211a8,8,0,0,1-7.156,0L280,32.944l-12.422,6.211a8,8,0,0,1-7.156,0L248,32.944l-12.422,6.211a8,8,0,0,1-7.156,0L224,36.944V64h16V48h16V64h16V48h16V64h16V48h16V64h16V48h16V64h16V48h16V64h16V48h16V64h16V48h16V64h16V36.944Z" fill="#057333" data-original="#000000" style="" class=""/><path d="M448,400H432V384H416v16H400V384H384v16H368V384h-8v24a8,8,0,0,1,3.578.845L376,415.056l12.422-6.211a8,8,0,0,1,7.156,0L408,415.056l12.422-6.211a8,8,0,0,1,7.156,0L440,415.056l12.422-6.211a8,8,0,0,1,7.156,0L464,411.056V384H448Z" fill="#057333" data-original="#000000" style="" class=""/><path d="M320,368H168a8,8,0,0,1-2.971-.572L136,355.816V376h16v16H136v16h16v16H136v16h16v16H136v20.184l29.029-11.612A8,8,0,0,1,168,464H320a7.994,7.994,0,0,1,3.578.845L344,475.056V456H328V440h16V424H328V408h16V392H328V376h16V356.944l-20.422,10.211A7.994,7.994,0,0,1,320,368Zm-80,88a40,40,0,1,1,40-40A40.045,40.045,0,0,1,240,456Z" fill="#057333" data-original="#000000" style="" class=""/><path d="M360,368H462.776l-6.7-46.869c-.085-.594,3.957-49.885,3.957-49.885a593.788,593.788,0,0,0,.3-94.561l-4.31-56.072c-.049-.644,6.534-40.613,6.534-40.613H288s-.171,33.63-.218,33.827c-.009.037-.012.076-.021.113L280,144.985v7.488a96,96,0,1,1,0,143.054V352h38.111l30.311-15.155A8,8,0,0,1,360,344Z" fill="#057333" data-original="#000000" style="" class=""/></g></g></svg>
