<?xml version="1.0" standalone="no"?>
<!DOCTYPE svg PUBLIC "-//W3C//DTD SVG 20010904//EN"
 "http://www.w3.org/TR/2001/REC-SVG-20010904/DTD/svg10.dtd">
<svg version="1.0" xmlns="http://www.w3.org/2000/svg"
 width="64.000000pt" height="64.000000pt" viewBox="0 0 64.000000 64.000000"
 preserveAspectRatio="xMidYMid meet">

<g transform="translate(0.000000,64.000000) scale(0.100000,-0.100000)"
fill="#000000" stroke="none">
<path d="M80 542 c0 -66 -3 -82 -20 -97 -17 -15 -20 -31 -20 -97 0 -43 -5 -87
-12 -97 -16 -26 4 -71 32 -71 18 0 20 -6 20 -80 l0 -80 254 0 c218 0 257 2
270 16 12 12 16 37 16 104 0 99 -11 120 -61 120 -24 0 -29 4 -29 24 0 24 -23
56 -41 56 -5 0 -9 44 -9 98 l0 98 -43 42 -43 42 -157 0 -157 0 0 -78z m300 18
l0 -40 40 0 40 0 0 -90 c0 -89 0 -90 -24 -90 -46 0 -56 -23 -56 -126 0 -87 -1
-94 -20 -94 -15 0 -20 7 -20 30 0 16 5 41 12 55 9 21 9 31 0 46 -7 10 -12 54
-12 98 0 108 -3 111 -136 111 l-104 0 0 70 0 70 140 0 140 0 0 -40z m45 0 c18
-19 17 -20 -3 -20 -15 0 -22 6 -22 20 0 11 2 20 3 20 2 0 12 -9 22 -20z m-107
-212 l3 -88 -131 0 -130 0 0 83 c0 46 3 87 7 91 4 3 61 5 127 4 l121 -3 3 -87z
m190 -60 c3 -25 0 -28 -27 -28 -53 0 -63 -21 -59 -126 l3 -94 -162 0 -163 0 0
70 0 70 109 0 110 0 3 -37 c3 -36 5 -38 38 -38 l35 0 3 95 c1 52 4 101 7 108
3 9 20 12 52 10 44 -3 48 -5 51 -30z m-358 -63 c0 -11 11 -15 40 -15 29 0 40
4 40 15 0 12 13 15 56 15 47 0 55 -3 50 -16 -3 -9 -6 -18 -6 -20 0 -2 -63 -4
-140 -4 -77 0 -140 2 -140 4 0 2 -3 11 -6 20 -5 13 3 16 50 16 43 0 56 -3 56
-15z m53 8 c-7 -2 -19 -2 -25 0 -7 3 -2 5 12 5 14 0 19 -2 13 -5z m395 -20 c3
-19 -1 -23 -21 -23 -16 0 -26 7 -30 20 -3 12 -14 20 -27 20 -13 0 -24 -8 -27
-20 -7 -27 -53 -28 -53 -2 0 30 10 33 85 30 64 -3 70 -5 73 -25z m-68 -33 c0
-16 -4 -30 -10 -30 -5 0 -10 14 -10 30 0 17 5 30 10 30 6 0 10 -13 10 -30z
m-37 -30 c3 -12 14 -20 27 -20 13 0 24 8 27 20 4 13 14 20 30 20 23 0 24 -2
21 -62 l-3 -63 -75 0 -75 0 -3 63 c-3 60 -2 62 21 62 16 0 26 -7 30 -20z" fill="#057333"/>
<path d="M120 570 c0 -5 18 -10 40 -10 22 0 40 5 40 10 0 6 -18 10 -40 10 -22
0 -40 -4 -40 -10z" fill="#057333"/>
<path d="M220 570 c0 -5 9 -10 20 -10 11 0 20 5 20 10 0 6 -9 10 -20 10 -11 0
-20 -4 -20 -10z" fill="#057333"/>
<path d="M280 570 c0 -5 18 -10 40 -10 22 0 40 5 40 10 0 6 -18 10 -40 10 -22
0 -40 -4 -40 -10z" fill="#057333"/>
<path d="M120 530 c0 -5 18 -10 40 -10 22 0 40 5 40 10 0 6 -18 10 -40 10 -22
0 -40 -4 -40 -10z" fill="#057333"/>
<path d="M220 530 c0 -5 9 -10 20 -10 11 0 20 5 20 10 0 6 -9 10 -20 10 -11 0
-20 -4 -20 -10z" fill="#057333"/>
<path d="M280 530 c0 -5 18 -10 40 -10 22 0 40 5 40 10 0 6 -18 10 -40 10 -22
0 -40 -4 -40 -10z" fill="#057333"/>
<path d="M120 490 c0 -5 18 -10 40 -10 22 0 40 5 40 10 0 6 -18 10 -40 10 -22
0 -40 -4 -40 -10z" fill="#057333"/>
<path d="M220 490 c0 -5 9 -10 20 -10 11 0 20 5 20 10 0 6 -9 10 -20 10 -11 0
-20 -4 -20 -10z" fill="#057333"/>
<path d="M280 490 c0 -6 33 -10 80 -10 47 0 80 4 80 10 0 6 -33 10 -80 10 -47
0 -80 -4 -80 -10z" fill="#057333"/>
<path d="M360 450 c0 -5 18 -10 40 -10 22 0 40 5 40 10 0 6 -18 10 -40 10 -22
0 -40 -4 -40 -10z" fill="#057333"/>
<path d="M360 410 c0 -5 18 -10 40 -10 22 0 40 5 40 10 0 6 -18 10 -40 10 -22
0 -40 -4 -40 -10z" fill="#057333"/>
<path d="M360 370 c0 -5 18 -10 40 -10 22 0 40 5 40 10 0 6 -18 10 -40 10 -22
0 -40 -4 -40 -10z" fill="#057333"/>
<path d="M77 424 c-4 -4 -7 -40 -7 -81 l0 -73 120 0 121 0 -3 78 -3 77 -111 3
c-60 1 -113 -1 -117 -4z m213 -74 l0 -60 -100 0 -100 0 0 60 0 60 100 0 100 0
0 -60z" fill="#057333"/>
<path d="M120 150 c0 -6 37 -10 90 -10 53 0 90 4 90 10 0 6 -37 10 -90 10 -53
0 -90 -4 -90 -10z" fill="#057333"/>
<path d="M120 110 c0 -6 37 -10 90 -10 53 0 90 4 90 10 0 6 -37 10 -90 10 -53
0 -90 -4 -90 -10z" fill="#057333"/>
<path d="M120 70 c0 -6 37 -10 90 -10 53 0 90 4 90 10 0 6 -37 10 -90 10 -53
0 -90 -4 -90 -10z" fill="#057333"/>
<path d="M547 614 c-4 -4 -7 -65 -7 -135 0 -100 4 -136 17 -164 9 -19 20 -35
23 -35 4 0 15 17 24 38 13 30 16 62 14 167 l-3 130 -30 3 c-17 2 -34 0 -38 -4z
m53 -24 c0 -5 -9 -10 -20 -10 -11 0 -20 5 -20 10 0 6 9 10 20 10 11 0 20 -4
20 -10z m-33 -182 c-2 -29 -3 -6 -3 52 0 58 1 81 3 53 2 -29 2 -77 0 -105z
m30 0 c-2 -29 -3 -6 -3 52 0 58 1 81 3 53 2 -29 2 -77 0 -105z m-7 -78 c0 -5
-4 -10 -10 -10 -5 0 -10 5 -10 10 0 6 5 10 10 10 6 0 10 -4 10 -10z" fill="#057333"/>
</g>
</svg>
